<?xml version="1.0" encoding="UTF-8"?>
<svg version="1.1" xmlns="http://www.w3.org/2000/svg" width="1920" height="960">
<path d="M0 0 C0.96416588 -0.00260775 1.92833176 -0.00521549 2.92171478 -0.00790226 C4.52178249 -0.00455618 4.52178249 -0.00455618 6.1541748 -0.0011425 C7.28153297 -0.00270249 8.40889114 -0.00426248 9.57041168 -0.00586975 C13.37373638 -0.00988006 17.17702164 -0.00668996 20.98034668 -0.00355339 C23.69657474 -0.00435698 26.41280109 -0.00665098 29.12902832 -0.00886345 C35.75624065 -0.0133193 42.38344167 -0.0123455 49.01065445 -0.00945081 C54.39483992 -0.00719605 59.77902221 -0.00688457 65.16320801 -0.00797462 C65.92835928 -0.00812786 66.69351056 -0.00828109 67.48184824 -0.00843897 C69.03604571 -0.00875868 70.59024318 -0.00908289 72.14444065 -0.00941156 C86.73171573 -0.01226581 101.31898453 -0.00898019 115.90625858 -0.00361119 C128.43356193 0.0008568 140.960856 0.00008085 153.48815918 -0.00452995 C168.02182925 -0.00987668 182.55549382 -0.01199112 197.08916473 -0.00891769 C198.63777161 -0.00859913 200.18637848 -0.00828476 201.73498535 -0.00797462 C202.49700839 -0.00782035 203.25903142 -0.00766607 204.04414606 -0.00750712 C209.42432951 -0.00664226 214.80450947 -0.00810418 220.18469238 -0.01045418 C226.73779361 -0.01325347 233.29088285 -0.01251117 239.8439827 -0.00717343 C243.18999603 -0.00453817 246.53597272 -0.00406315 249.88198853 -0.00682259 C253.50268549 -0.00953429 257.12332528 -0.00615266 260.74401855 -0.0011425 C261.81073036 -0.00337322 262.87744217 -0.00560395 263.97647858 -0.00790226 C264.94064445 -0.00529452 265.90481033 -0.00268677 266.89819336 0 C267.73477226 0.00016235 268.57135117 0.0003247 269.43328094 0.00049198 C271.44909668 0.12584114 271.44909668 0.12584114 273.44909668 1.12584114 C273.44909668 1.78584114 273.44909668 2.44584114 273.44909668 3.12584114 C274.23723755 3.12362053 275.02537842 3.12139992 275.83740234 3.11911201 C285.87462516 3.09215104 295.91184376 3.07404368 305.94909668 3.06334114 C307.14484692 3.06205711 307.14484692 3.06205711 308.36475372 3.06074715 C333.4061244 3.03697783 358.42099049 3.2287422 383.44909668 4.12584114 C383.44909668 4.78584114 383.44909668 5.44584114 383.44909668 6.12584114 C384.38294189 6.12060432 385.31678711 6.11536751 386.27893066 6.109972 C389.73222464 6.09296494 393.18547435 6.08040812 396.63879395 6.0709095 C398.13554586 6.06586993 399.63229284 6.05903827 401.12902832 6.05040169 C403.27609475 6.03831955 405.4230963 6.03260923 407.57019043 6.02818489 C409.51043091 6.02032967 409.51043091 6.02032967 411.48986816 6.01231575 C414.44909668 6.12584114 414.44909668 6.12584114 415.44909668 7.12584114 C417.36249937 7.27175314 419.28089629 7.35317044 421.19909668 7.40709114 C422.94706543 7.46316536 422.94706543 7.46316536 424.73034668 7.52037239 C425.95753418 7.55517708 427.18472168 7.58998177 428.44909668 7.62584114 C430.86589133 7.69438469 433.28257333 7.76706993 435.69909668 7.84459114 C436.77675293 7.87488411 437.85440918 7.90517708 438.96472168 7.93638802 C441.44909668 8.12584114 441.44909668 8.12584114 442.44909668 9.12584114 C445.2337382 9.34521521 447.99952021 9.5052183 450.78894043 9.62584114 C452.04487755 9.68674934 452.04487755 9.68674934 453.32618713 9.74888802 C456.01279926 9.87902135 458.69963695 10.00310732 461.38659668 10.12584114 C464.91680964 10.28740984 468.44667252 10.45485611 471.97644043 10.62584114 C472.79418442 10.66129036 473.61192841 10.69673958 474.45445251 10.73326302 C480.223608 11.0130968 480.223608 11.0130968 482.44909668 12.12584114 C482.44909668 12.78584114 482.44909668 13.44584114 482.44909668 14.12584114 C487.39909668 14.12584114 492.34909668 14.12584114 497.44909668 14.12584114 C497.44909668 14.78584114 497.44909668 15.44584114 497.44909668 16.12584114 C498.1735498 16.11423958 498.89800293 16.10263802 499.64440918 16.09068489 C504.69692991 16.04352803 509.48288435 16.0520655 514.44909668 17.12584114 C514.44909668 18.11584114 514.44909668 19.10584114 514.44909668 20.12584114 C518.40909668 20.45584114 522.36909668 20.78584114 526.44909668 21.12584114 C526.44909668 21.78584114 526.44909668 22.44584114 526.44909668 23.12584114 C528.75909668 23.45584114 531.06909668 23.78584114 533.44909668 24.12584114 C533.44909668 25.11584114 533.44909668 26.10584114 533.44909668 27.12584114 C534.76909668 27.12584114 536.08909668 27.12584114 537.44909668 27.12584114 C537.44909668 27.78584114 537.44909668 28.44584114 537.44909668 29.12584114 C539.42909668 29.45584114 541.40909668 29.78584114 543.44909668 30.12584114 C543.77909668 31.11584114 544.10909668 32.10584114 544.44909668 33.12584114 C546.42909668 33.45584114 548.40909668 33.78584114 550.44909668 34.12584114 C550.44909668 34.78584114 550.44909668 35.44584114 550.44909668 36.12584114 C551.10909668 36.12584114 551.76909668 36.12584114 552.44909668 36.12584114 C552.44909668 36.78584114 552.44909668 37.44584114 552.44909668 38.12584114 C553.10909668 38.12584114 553.76909668 38.12584114 554.44909668 38.12584114 C554.44909668 38.78584114 554.44909668 39.44584114 554.44909668 40.12584114 C556.92409668 41.11584114 556.92409668 41.11584114 559.44909668 42.12584114 C559.44909668 42.78584114 559.44909668 43.44584114 559.44909668 44.12584114 C560.43909668 44.12584114 561.42909668 44.12584114 562.44909668 44.12584114 C563.74779659 45.58687854 565.0409283 47.05625183 566.24206543 48.59849739 C567.47604321 50.22992818 567.47604321 50.22992818 569.26159668 51.87584114 C570.44909668 53.12584114 570.44909668 53.12584114 570.44909668 55.12584114 C571.43909668 55.45584114 572.42909668 55.78584114 573.44909668 56.12584114 C573.77909668 57.11584114 574.10909668 58.10584114 574.44909668 59.12584114 C575.10909668 59.45584114 575.76909668 59.78584114 576.44909668 60.12584114 C576.44909668 61.11584114 576.44909668 62.10584114 576.44909668 63.12584114 C577.43909668 63.12584114 578.42909668 63.12584114 579.44909668 63.12584114 C579.77909668 64.77584114 580.10909668 66.42584114 580.44909668 68.12584114 C581.10909668 68.12584114 581.76909668 68.12584114 582.44909668 68.12584114 C582.44909668 69.11584114 582.44909668 70.10584114 582.44909668 71.12584114 C583.10909668 71.12584114 583.76909668 71.12584114 584.44909668 71.12584114 C586.48345198 74.85549253 587.44909668 76.79489156 587.44909668 81.12584114 C588.10909668 81.12584114 588.76909668 81.12584114 589.44909668 81.12584114 C592.89845285 85.40304279 593.11542398 89.84460773 593.44909668 95.12584114 C594.10909668 95.12584114 594.76909668 95.12584114 595.44909668 95.12584114 C595.65405762 95.98048958 595.85901855 96.83513802 596.07019043 97.71568489 C596.47431152 99.37277473 596.47431152 99.37277473 596.88659668 101.06334114 C597.15343262 102.16548958 597.42026855 103.26763802 597.69519043 104.40318489 C598.17905393 107.02005368 598.17905393 107.02005368 599.44909668 108.12584114 C600.52732189 114.08935835 600.544949 120.08714511 600.44909668 126.12584114 C601.43909668 126.45584114 602.42909668 126.78584114 603.44909668 127.12584114 C604.32931037 133.83747052 604.56291623 140.35990095 604.44909668 147.12584114 C605.10909668 147.12584114 605.76909668 147.12584114 606.44909668 147.12584114 C606.44909668 151.41584114 606.44909668 155.70584114 606.44909668 160.12584114 C607.43909668 160.45584114 608.42909668 160.78584114 609.44909668 161.12584114 C610.38923959 173.14623978 610.56023901 185.0730726 610.44909668 197.12584114 C611.10909668 197.12584114 611.76909668 197.12584114 612.44909668 197.12584114 C613.65554263 222.26766624 613.59762837 247.40400236 613.58342218 272.56858182 C613.5808502 278.5691496 613.58324932 284.56971603 613.58480835 290.57028389 C613.58661601 300.63673876 613.58426074 310.70318623 613.57946777 320.76963997 C613.5740264 332.32981968 613.57579263 343.88998175 613.58129418 355.45016104 C613.58586383 365.46129316 613.58645722 375.47242004 613.58385551 385.48355287 C613.58231395 391.42526789 613.58203961 397.36697467 613.585392 403.30868912 C613.60593731 445.63682567 613.60593731 445.63682567 613.0032959 463.17833138 C612.9645743 464.31526719 612.9258527 465.45220301 612.88595772 466.62359142 C612.58181065 473.99312717 612.58181065 473.99312717 611.44909668 475.12584114 C611.21756748 477.86100579 611.04543737 480.57674676 610.91394043 483.31724739 C610.87096329 484.13708611 610.82798615 484.95692482 610.78370667 485.80160713 C610.64692608 488.43031264 610.51669518 491.05929726 610.38659668 493.68834114 C610.29522973 495.46635808 610.20343847 497.24435326 610.11120605 499.02232552 C609.88557132 503.38992652 609.66581163 507.75778882 609.44909668 512.12584114 C608.45909668 512.45584114 607.46909668 512.78584114 606.44909668 513.12584114 C606.44909668 517.41584114 606.44909668 521.70584114 606.44909668 526.12584114 C605.78909668 526.12584114 605.12909668 526.12584114 604.44909668 526.12584114 C604.46069824 526.80388802 604.4722998 527.48193489 604.48425293 528.18052864 C604.61605942 541.77542705 604.61605942 541.77542705 603.44909668 547.12584114 C602.78909668 547.45584114 602.12909668 547.78584114 601.44909668 548.12584114 C600.97312302 550.83183956 600.60816039 553.46179518 600.32409668 556.18834114 C600.23772949 556.94695442 600.1513623 557.7055677 600.06237793 558.48716927 C599.84970151 560.365811 599.64834209 562.2457275 599.44909668 564.12584114 C598.78909668 564.12584114 598.12909668 564.12584114 597.44909668 564.12584114 C597.4722998 564.71752083 597.49550293 565.30920052 597.51940918 565.91880989 C597.62321132 570.46386073 597.58618025 573.98524173 595.44909668 578.12584114 C594.78909668 578.12584114 594.12909668 578.12584114 593.44909668 578.12584114 C593.11909668 581.09584114 592.78909668 584.06584114 592.44909668 587.12584114 C591.78909668 587.12584114 591.12909668 587.12584114 590.44909668 587.12584114 C590.11909668 589.10584114 589.78909668 591.08584114 589.44909668 593.12584114 C588.78909668 593.12584114 588.12909668 593.12584114 587.44909668 593.12584114 C587.11909668 594.77584114 586.78909668 596.42584114 586.44909668 598.12584114 C585.78909668 598.12584114 585.12909668 598.12584114 584.44909668 598.12584114 C584.30472168 598.88896614 584.16034668 599.65209114 584.01159668 600.43834114 C583.44909668 603.12584114 583.44909668 603.12584114 582.44909668 606.12584114 C581.78909668 606.12584114 581.12909668 606.12584114 580.44909668 606.12584114 C579.78909668 607.77584114 579.12909668 609.42584114 578.44909668 611.12584114 C577.78909668 611.12584114 577.12909668 611.12584114 576.44909668 611.12584114 C576.44909668 612.11584114 576.44909668 613.10584114 576.44909668 614.12584114 C575.78909668 614.12584114 575.12909668 614.12584114 574.44909668 614.12584114 C574.11909668 615.11584114 573.78909668 616.10584114 573.44909668 617.12584114 C572.45909668 617.12584114 571.46909668 617.12584114 570.44909668 617.12584114 C570.40784668 618.01271614 570.36659668 618.89959114 570.32409668 619.81334114 C569.12413955 624.356036 567.15840933 625.34385665 563.44909668 628.12584114 C563.11909668 628.78584114 562.78909668 629.44584114 562.44909668 630.12584114 C561.45909668 630.12584114 560.46909668 630.12584114 559.44909668 630.12584114 C559.44909668 630.78584114 559.44909668 631.44584114 559.44909668 632.12584114 C557.79909668 632.78584114 556.14909668 633.44584114 554.44909668 634.12584114 C554.44909668 634.78584114 554.44909668 635.44584114 554.44909668 636.12584114 C553.78909668 636.12584114 553.12909668 636.12584114 552.44909668 636.12584114 C552.44909668 636.78584114 552.44909668 637.44584114 552.44909668 638.12584114 C551.88319824 638.39138802 551.3172998 638.65693489 550.73425293 638.93052864 C550.00077637 639.28373177 549.2672998 639.63693489 548.51159668 640.00084114 C547.78069824 640.34888802 547.0497998 640.69693489 546.29675293 641.05552864 C544.28577209 641.99433884 544.28577209 641.99433884 543.44909668 644.12584114 C542.45909668 644.12584114 541.46909668 644.12584114 540.44909668 644.12584114 C540.44909668 644.78584114 540.44909668 645.44584114 540.44909668 646.12584114 C538.13909668 646.45584114 535.82909668 646.78584114 533.44909668 647.12584114 C533.44909668 648.11584114 533.44909668 649.10584114 533.44909668 650.12584114 C531.41095435 650.80320595 529.36839113 651.46727648 527.32409668 652.12584114 C526.18714355 652.49709114 525.05019043 652.86834114 523.87878418 653.25084114 C520.57013727 654.09496063 517.84381651 654.2909339 514.44909668 654.12584114 C514.44909668 655.11584114 514.44909668 656.10584114 514.44909668 657.12584114 C508.74219034 658.11834659 503.23501179 658.23061626 497.44909668 658.12584114 C497.44909668 658.78584114 497.44909668 659.44584114 497.44909668 660.12584114 C491.83909668 660.12584114 486.22909668 660.12584114 480.44909668 660.12584114 C480.44909668 661.11584114 480.44909668 662.10584114 480.44909668 663.12584114 C478.73025269 663.20886482 478.73025269 663.20886482 476.97668457 663.29356575 C472.74043899 663.49942689 468.50452144 663.71146246 464.26867676 663.92540169 C462.43249783 664.01726754 460.59623341 664.10744036 458.7598877 664.1959095 C456.12610141 664.3230872 453.49267882 664.45627581 450.85925293 664.59068489 C449.62018944 664.6485643 449.62018944 664.6485643 448.35609436 664.70761299 C444.59150836 664.5624862 444.59150836 664.5624862 441.44909668 666.12584114 C439.53569399 666.27175314 437.61729707 666.35317044 435.69909668 666.40709114 C434.53378418 666.44447395 433.36847168 666.48185677 432.16784668 666.52037239 C429.68868001 666.59068489 427.20951335 666.66099739 424.73034668 666.73130989 C423.56503418 666.7686927 422.39972168 666.80607552 421.19909668 666.84459114 C420.12144043 666.87488411 419.04378418 666.90517708 417.93347168 666.93638802 C415.50771326 666.85012677 415.50771326 666.85012677 414.44909668 668.12584114 C412.15758251 668.21375089 409.86337144 668.23278152 407.57019043 668.22349739 C406.88352798 668.22208244 406.19686554 668.2206675 405.48939514 668.21920967 C403.28841867 668.21359593 401.08754259 668.20104121 398.88659668 668.18834114 C397.39766585 668.18332791 395.90873344 668.17876469 394.4197998 668.17466927 C390.76286593 668.16362207 387.1059911 668.14634827 383.44909668 668.12584114 C383.44909668 668.78584114 383.44909668 669.44584114 383.44909668 670.12584114 C378.05345469 670.2793536 372.65759432 670.42302672 367.26159668 670.56334114 C366.40104675 670.58607094 365.54049683 670.60880074 364.65386963 670.63221931 C352.04596018 670.95981427 339.43877734 671.17763614 326.82758904 671.31809998 C324.47180385 671.34455548 322.11603591 671.37222337 319.76026917 671.40027046 C318.18478419 671.41892268 316.60929896 671.43755364 315.03381348 671.45616341 C314.25304349 671.46539865 313.4722735 671.47463388 312.66784382 671.48414898 C307.94103691 671.53901573 303.21423861 671.58460556 298.48728085 671.6242218 C295.49860932 671.65124297 292.51006819 671.68626957 289.52150536 671.72328377 C288.1130638 671.73894419 286.70457866 671.7511085 285.29607582 671.7596302 C283.35498138 671.77174179 281.41398199 671.79697034 279.47302246 671.82286263 C278.37757111 671.83317009 277.28211975 671.84347755 276.1534729 671.85409737 C273.22810046 671.93464264 273.22810046 671.93464264 270.44909668 674.12584114 C268.32305717 674.37653947 268.32305717 674.37653947 265.80917358 674.37752342 C264.37131343 674.38534666 264.37131343 674.38534666 262.90440559 674.39332795 C261.32140317 674.38663579 261.32140317 674.38663579 259.7064209 674.37980843 C258.58708097 674.38292841 257.46774105 674.38604839 256.31448174 674.38926291 C252.54419647 674.39727341 248.77407079 674.39090734 245.00378418 674.3846302 C242.30873133 674.38733871 239.61368967 674.39082619 236.91864014 674.39525032 C230.34669799 674.40415669 223.77480145 674.40221679 217.20285749 674.39642504 C211.86303806 674.39191344 206.52323144 674.39129347 201.18341064 674.39347267 C200.4242343 674.39377914 199.66505796 674.3940856 198.88287628 674.39440136 C197.34076007 674.39504079 195.79864386 674.39568922 194.25652766 674.39634654 C179.78652616 674.40205348 165.31654997 674.39548625 150.84655261 674.38474581 C138.42303899 674.37580996 125.99956275 674.3773619 113.5760498 674.38658333 C99.15882056 674.39727955 84.74161353 674.40150412 70.32438087 674.3953588 C68.78784816 674.39472168 67.25131544 674.39409294 65.71478271 674.39347267 C64.58069404 674.39300984 64.58069404 674.39300984 63.42369449 674.39253767 C58.08854889 674.39080878 52.75341735 674.39373 47.41827393 674.39843178 C40.9190108 674.40403342 34.419796 674.40253932 27.92053843 674.39187029 C24.60272753 674.38660387 21.28501422 674.38564478 17.96720123 674.39116859 C14.37531008 674.3965991 10.7836488 674.38982021 7.19177246 674.37980843 C6.13643751 674.38426987 5.08110256 674.38873131 3.99378777 674.39332795 C3.03521433 674.38811246 2.07664089 674.38289696 1.08901978 674.37752342 C0.25943819 674.37719872 -0.57014339 674.37687401 -1.42486382 674.37653947 C-3.55090332 674.12584114 -3.55090332 674.12584114 -6.55090332 672.12584114 C-9.352811 671.80304266 -9.352811 671.80304266 -12.5748291 671.82286263 C-14.45009026 671.79784676 -14.45009026 671.79784676 -16.36323547 671.77232552 C-17.74089477 671.76372952 -19.11855492 671.75527 -20.49621582 671.74693489 C-21.92885875 671.73100537 -23.36149155 671.71414121 -24.79411316 671.69639778 C-27.84066998 671.66034413 -30.88720537 671.63010422 -33.93386841 671.60457039 C-38.66790953 671.56473043 -43.4017454 671.51215744 -48.13562012 671.45616341 C-48.91597468 671.44694579 -49.69632925 671.43772818 -50.50033092 671.42823124 C-52.07274181 671.40961541 -53.64515208 671.39094738 -55.21756172 671.37222672 C-57.57036056 671.34459201 -59.92317057 671.31816931 -62.27598572 671.29196358 C-74.97442438 671.1480586 -87.66851214 670.89865266 -100.36340332 670.56334114 C-101.65132782 670.52985069 -101.65132782 670.52985069 -102.965271 670.49568367 C-107.49396427 670.37750021 -112.02249844 670.25467967 -116.55090332 670.12584114 C-116.55090332 669.46584114 -116.55090332 668.80584114 -116.55090332 668.12584114 C-117.48474854 668.13107796 -118.41859375 668.13631477 -119.3807373 668.14171028 C-122.83403129 668.15871734 -126.28728099 668.17127416 -129.74060059 668.18077278 C-131.2373525 668.18581235 -132.73409948 668.19264401 -134.23083496 668.20128059 C-136.37790139 668.21336273 -138.52490294 668.21907305 -140.67199707 668.22349739 C-141.96549072 668.22873421 -143.25898437 668.23397102 -144.5916748 668.23936653 C-147.55090332 668.12584114 -147.55090332 668.12584114 -148.55090332 667.12584114 C-150.32960058 666.96819709 -152.11408808 666.87483437 -153.89855957 666.80943489 C-155.51794434 666.74659309 -155.51794434 666.74659309 -157.17004395 666.68248177 C-158.87450684 666.62350716 -158.87450684 666.62350716 -160.61340332 666.56334114 C-161.7535791 666.52015755 -162.89375488 666.47697395 -164.06848145 666.43248177 C-166.89582527 666.32601275 -169.7232607 666.22399907 -172.55090332 666.12584114 C-172.55090332 665.46584114 -172.55090332 664.80584114 -172.55090332 664.12584114 C-173.15337891 664.13107796 -173.75585449 664.13631477 -174.37658691 664.14171028 C-187.47738355 664.23992274 -200.48031692 664.03963994 -213.55090332 663.12584114 C-213.88090332 662.46584114 -214.21090332 661.80584114 -214.55090332 661.12584114 C-217.26537311 660.81342659 -219.88999693 660.61247522 -222.61340332 660.50084114 C-223.3720166 660.46216927 -224.13062988 660.42349739 -224.91223145 660.38365364 C-226.79137527 660.28910552 -228.67110668 660.20637358 -230.55090332 660.12584114 C-230.55090332 659.46584114 -230.55090332 658.80584114 -230.55090332 658.12584114 C-231.19156738 658.1374427 -231.83223145 658.14904427 -232.49230957 658.16099739 C-237.63743554 658.21467233 -242.48115256 658.00753693 -247.55090332 657.12584114 C-247.55090332 656.13584114 -247.55090332 655.14584114 -247.55090332 654.12584114 C-251.51090332 653.79584114 -255.47090332 653.46584114 -259.55090332 653.12584114 C-259.55090332 652.46584114 -259.55090332 651.80584114 -259.55090332 651.12584114 C-261.86090332 650.79584114 -264.17090332 650.46584114 -266.55090332 650.12584114 C-266.55090332 649.13584114 -266.55090332 648.14584114 -266.55090332 647.12584114 C-268.86090332 646.79584114 -271.17090332 646.46584114 -273.55090332 646.12584114 C-273.55090332 645.46584114 -273.55090332 644.80584114 -273.55090332 644.12584114 C-274.54090332 644.12584114 -275.53090332 644.12584114 -276.55090332 644.12584114 C-277.57194883 643.14733919 -278.57151542 642.14603687 -279.55090332 641.12584114 C-280.54090332 640.79584114 -281.53090332 640.46584114 -282.55090332 640.12584114 C-282.55090332 639.46584114 -282.55090332 638.80584114 -282.55090332 638.12584114 C-283.54090332 638.12584114 -284.53090332 638.12584114 -285.55090332 638.12584114 C-285.55090332 637.46584114 -285.55090332 636.80584114 -285.55090332 636.12584114 C-286.21090332 636.12584114 -286.87090332 636.12584114 -287.55090332 636.12584114 C-287.55090332 635.46584114 -287.55090332 634.80584114 -287.55090332 634.12584114 C-289.20090332 633.46584114 -290.85090332 632.80584114 -292.55090332 632.12584114 C-292.55090332 631.46584114 -292.55090332 630.80584114 -292.55090332 630.12584114 C-293.21090332 630.12584114 -293.87090332 630.12584114 -294.55090332 630.12584114 C-294.55090332 629.46584114 -294.55090332 628.80584114 -294.55090332 628.12584114 C-295.10777832 628.08459114 -295.66465332 628.04334114 -296.23840332 628.00084114 C-299.78312696 626.65959436 -301.33774627 624.11659392 -303.55090332 621.12584114 C-304.04590332 619.64084114 -304.04590332 619.64084114 -304.55090332 618.12584114 C-305.54090332 617.46584114 -306.53090332 616.80584114 -307.55090332 616.12584114 C-307.55090332 615.46584114 -307.55090332 614.80584114 -307.55090332 614.12584114 C-308.21090332 614.12584114 -308.87090332 614.12584114 -309.55090332 614.12584114 C-309.55090332 613.13584114 -309.55090332 612.14584114 -309.55090332 611.12584114 C-310.54090332 611.12584114 -311.53090332 611.12584114 -312.55090332 611.12584114 C-312.88090332 609.47584114 -313.21090332 607.82584114 -313.55090332 606.12584114 C-314.21090332 606.12584114 -314.87090332 606.12584114 -315.55090332 606.12584114 C-315.55090332 605.13584114 -315.55090332 604.14584114 -315.55090332 603.12584114 C-316.21090332 603.12584114 -316.87090332 603.12584114 -317.55090332 603.12584114 C-317.55090332 601.47584114 -317.55090332 599.82584114 -317.55090332 598.12584114 C-318.21090332 598.12584114 -318.87090332 598.12584114 -319.55090332 598.12584114 C-320.04590332 595.65084114 -320.04590332 595.65084114 -320.55090332 593.12584114 C-321.21090332 593.12584114 -321.87090332 593.12584114 -322.55090332 593.12584114 C-323.54090332 588.67084114 -323.54090332 588.67084114 -324.55090332 584.12584114 C-325.21090332 584.12584114 -325.87090332 584.12584114 -326.55090332 584.12584114 C-326.55090332 582.14584114 -326.55090332 580.16584114 -326.55090332 578.12584114 C-327.54090332 577.79584114 -328.53090332 577.46584114 -329.55090332 577.12584114 C-331.02756624 573.63554696 -330.62255017 569.85147728 -330.55090332 566.12584114 C-331.21090332 566.12584114 -331.87090332 566.12584114 -332.55090332 566.12584114 C-333.32131183 560.05887415 -333.64796444 554.24069142 -333.55090332 548.12584114 C-334.54090332 547.79584114 -335.53090332 547.46584114 -336.55090332 547.12584114 C-337.48944338 540.0867907 -337.65898364 533.22311542 -337.55090332 526.12584114 C-338.21090332 526.12584114 -338.87090332 526.12584114 -339.55090332 526.12584114 C-339.55090332 521.83584114 -339.55090332 517.54584114 -339.55090332 513.12584114 C-340.54090332 512.79584114 -341.53090332 512.46584114 -342.55090332 512.12584114 C-343.58420579 500.11369993 -343.66407559 488.17607643 -343.55090332 476.12584114 C-344.21090332 476.12584114 -344.87090332 476.12584114 -345.55090332 476.12584114 C-346.739331 451.20673204 -346.69953429 426.29625308 -346.68522882 401.35475087 C-346.68265554 395.44453912 -346.68505637 389.53432873 -346.68661499 383.6241169 C-346.68842257 373.70728967 -346.6860679 363.79046995 -346.68127441 353.87364388 C-346.67583606 342.49300362 -346.67759712 331.11238131 -346.68310082 319.73174149 C-346.68767431 309.8708953 -346.68826194 300.01005444 -346.68566215 290.14920753 C-346.68412227 284.29909055 -346.68384132 278.44898192 -346.68719864 272.59886551 C-346.69924249 248.42235375 -346.6504832 224.28155784 -345.55090332 200.12584114 C-344.89090332 200.12584114 -344.23090332 200.12584114 -343.55090332 200.12584114 C-343.56250488 198.86771614 -343.57410645 197.60959114 -343.58605957 196.31334114 C-343.77567766 166.57538983 -343.77567766 166.57538983 -341.55090332 162.12584114 C-340.89090332 162.12584114 -340.23090332 162.12584114 -339.55090332 162.12584114 C-339.55090332 157.83584114 -339.55090332 153.54584114 -339.55090332 149.12584114 C-338.89090332 149.12584114 -338.23090332 149.12584114 -337.55090332 149.12584114 C-337.56250488 148.3640052 -337.57410645 147.60216927 -337.58605957 146.81724739 C-337.64137626 140.48743792 -337.38749592 134.40028565 -336.55090332 128.12584114 C-335.06590332 127.63084114 -335.06590332 127.63084114 -333.55090332 127.12584114 C-333.56250488 126.48517708 -333.57410645 125.84451302 -333.58605957 125.18443489 C-333.63973451 120.03930892 -333.43259911 115.1955919 -332.55090332 110.12584114 C-331.89090332 110.12584114 -331.23090332 110.12584114 -330.55090332 110.12584114 C-330.59215332 108.92959114 -330.63340332 107.73334114 -330.67590332 106.50084114 C-330.6894204 102.70254161 -329.97100085 99.67608496 -328.55090332 96.12584114 C-327.89090332 96.12584114 -327.23090332 96.12584114 -326.55090332 96.12584114 C-326.61277832 95.46584114 -326.67465332 94.80584114 -326.73840332 94.12584114 C-326.49103167 90.16789474 -325.35186448 86.66167314 -323.55090332 83.12584114 C-322.56090332 82.63084114 -322.56090332 82.63084114 -321.55090332 82.12584114 C-320.82396428 80.14695153 -320.15274081 78.14629557 -319.55090332 76.12584114 C-318.89090332 76.12584114 -318.23090332 76.12584114 -317.55090332 76.12584114 C-317.40652832 75.36271614 -317.26215332 74.59959114 -317.11340332 73.81334114 C-316.55090332 71.12584114 -316.55090332 71.12584114 -315.55090332 68.12584114 C-314.89090332 68.12584114 -314.23090332 68.12584114 -313.55090332 68.12584114 C-312.89090332 66.47584114 -312.23090332 64.82584114 -311.55090332 63.12584114 C-310.89090332 63.12584114 -310.23090332 63.12584114 -309.55090332 63.12584114 C-309.24152832 62.50709114 -308.93215332 61.88834114 -308.61340332 61.25084114 C-307.92590332 59.87584114 -307.23840332 58.50084114 -306.55090332 57.12584114 C-305.56090332 57.12584114 -304.57090332 57.12584114 -303.55090332 57.12584114 C-303.50965332 56.23896614 -303.46840332 55.35209114 -303.42590332 54.43834114 C-302.2185992 49.86783269 -300.3901089 48.78977971 -296.55090332 46.12584114 C-295.89090332 46.12584114 -295.23090332 46.12584114 -294.55090332 46.12584114 C-294.55090332 45.46584114 -294.55090332 44.80584114 -294.55090332 44.12584114 C-293.89090332 44.12584114 -293.23090332 44.12584114 -292.55090332 44.12584114 C-292.55090332 43.46584114 -292.55090332 42.80584114 -292.55090332 42.12584114 C-290.90090332 41.46584114 -289.25090332 40.80584114 -287.55090332 40.12584114 C-287.55090332 39.46584114 -287.55090332 38.80584114 -287.55090332 38.12584114 C-286.89090332 38.12584114 -286.23090332 38.12584114 -285.55090332 38.12584114 C-285.55090332 37.46584114 -285.55090332 36.80584114 -285.55090332 36.12584114 C-284.56090332 36.12584114 -283.57090332 36.12584114 -282.55090332 36.12584114 C-282.55090332 35.46584114 -282.55090332 34.80584114 -282.55090332 34.12584114 C-280.57090332 33.79584114 -278.59090332 33.46584114 -276.55090332 33.12584114 C-276.22090332 32.13584114 -275.89090332 31.14584114 -275.55090332 30.12584114 C-273.90090332 29.79584114 -272.25090332 29.46584114 -270.55090332 29.12584114 C-270.55090332 28.46584114 -270.55090332 27.80584114 -270.55090332 27.12584114 C-269.23090332 27.12584114 -267.91090332 27.12584114 -266.55090332 27.12584114 C-266.55090332 26.13584114 -266.55090332 25.14584114 -266.55090332 24.12584114 C-264.51276099 23.44847633 -262.47019777 22.7844058 -260.42590332 22.12584114 C-259.2889502 21.75459114 -258.15199707 21.38334114 -256.98059082 21.00084114 C-253.67194391 20.15672166 -250.94562316 19.96074838 -247.55090332 20.12584114 C-247.55090332 19.13584114 -247.55090332 18.14584114 -247.55090332 17.12584114 C-241.84399698 16.13333569 -236.33681843 16.02106602 -230.55090332 16.12584114 C-230.55090332 15.46584114 -230.55090332 14.80584114 -230.55090332 14.12584114 C-229.49129395 14.07685677 -228.43168457 14.02787239 -227.33996582 13.97740364 C-225.95191835 13.90237405 -224.56389881 13.8268263 -223.17590332 13.75084114 C-222.12789551 13.70443489 -222.12789551 13.70443489 -221.05871582 13.65709114 C-216.84904505 13.53084616 -216.84904505 13.53084616 -213.55090332 11.12584114 C-210.95787281 10.80285497 -208.46770187 10.60779443 -205.86340332 10.50084114 C-205.08625977 10.46289436 -204.30911621 10.42494759 -203.50842285 10.38585091 C-193.19608092 9.94043046 -182.8700119 10.03614576 -172.55090332 10.12584114 C-172.55090332 9.46584114 -172.55090332 8.80584114 -172.55090332 8.12584114 C-171.46821167 8.08825691 -171.46821167 8.08825691 -170.36364746 8.04991341 C-167.11336832 7.93432812 -163.86340644 7.8114334 -160.61340332 7.68834114 C-159.47709473 7.64902473 -158.34078613 7.60970833 -157.17004395 7.56920052 C-156.0904541 7.52730598 -155.01086426 7.48541145 -153.89855957 7.44224739 C-152.89832764 7.40558968 -151.8980957 7.36893196 -150.86755371 7.33116341 C-148.59021144 7.37912273 -148.59021144 7.37912273 -147.55090332 6.12584114 C-145.25938915 6.03793139 -142.96517808 6.01890076 -140.67199707 6.02818489 C-139.6420034 6.03030731 -139.6420034 6.03030731 -138.59120178 6.03247261 C-136.39022531 6.03808635 -134.18934923 6.05064107 -131.98840332 6.06334114 C-130.49947249 6.06835438 -129.01054008 6.07291759 -127.52160645 6.07701302 C-123.86467257 6.08806021 -120.20779774 6.10533401 -116.55090332 6.12584114 C-116.55090332 5.46584114 -116.55090332 4.80584114 -116.55090332 4.12584114 C-90.52912654 3.23075487 -64.52275266 3.03493099 -38.48840332 3.06334114 C-37.30341436 3.06462517 -37.30341436 3.06462517 -36.09448624 3.06593513 C-26.24660191 3.07739273 -16.39875415 3.09756538 -6.55090332 3.12584114 C-6.55090332 2.46584114 -6.55090332 1.80584114 -6.55090332 1.12584114 C-4.15283662 -0.07319221 -2.67793488 0.0005197 0 0 Z M10.44909668 173.12584114 C10.44909668 275.42584114 10.44909668 377.72584114 10.44909668 483.12584114 C11.43909668 483.12584114 12.42909668 483.12584114 13.44909668 483.12584114 C13.92347168 482.65146614 14.39784668 482.17709114 14.88659668 481.68834114 C16.7001326 479.87480522 17.96050781 479.55490819 20.44909668 479.12584114 C20.44909668 478.46584114 20.44909668 477.80584114 20.44909668 477.12584114 C21.43909668 477.12584114 22.42909668 477.12584114 23.44909668 477.12584114 C23.44909668 476.46584114 23.44909668 475.80584114 23.44909668 475.12584114 C24.02659668 474.99177864 24.60409668 474.85771614 25.19909668 474.71959114 C27.35854925 474.1497356 29.37028628 473.43787645 31.44909668 472.62584114 C34.09300453 471.59306464 36.68300143 470.76797039 39.44909668 470.12584114 C39.44909668 469.13584114 39.44909668 468.14584114 39.44909668 467.12584114 C41.75909668 466.79584114 44.06909668 466.46584114 46.44909668 466.12584114 C46.44909668 465.46584114 46.44909668 464.80584114 46.44909668 464.12584114 C47.76909668 464.12584114 49.08909668 464.12584114 50.44909668 464.12584114 C50.44909668 463.13584114 50.44909668 462.14584114 50.44909668 461.12584114 C52.75909668 460.79584114 55.06909668 460.46584114 57.44909668 460.12584114 C57.44909668 459.46584114 57.44909668 458.80584114 57.44909668 458.12584114 C58.01112793 458.0033802 58.57315918 457.88091927 59.15222168 457.75474739 C61.63896186 457.07385424 63.85424444 456.1323179 66.19909668 455.06334114 C66.99831543 454.70111458 67.79753418 454.33888802 68.62097168 453.96568489 C69.22425293 453.68853645 69.82753418 453.41138802 70.44909668 453.12584114 C70.44909668 452.46584114 70.44909668 451.80584114 70.44909668 451.12584114 C72.75909668 450.46584114 75.06909668 449.80584114 77.44909668 449.12584114 C77.44909668 448.46584114 77.44909668 447.80584114 77.44909668 447.12584114 C79.09909668 447.12584114 80.74909668 447.12584114 82.44909668 447.12584114 C82.77909668 446.46584114 83.10909668 445.80584114 83.44909668 445.12584114 C85.42798629 444.3989021 87.42864226 443.72767863 89.44909668 443.12584114 C89.44909668 442.46584114 89.44909668 441.80584114 89.44909668 441.12584114 C90.58347168 441.00209114 91.71784668 440.87834114 92.88659668 440.75084114 C94.06222168 440.54459114 95.23784668 440.33834114 96.44909668 440.12584114 C96.77909668 439.46584114 97.10909668 438.80584114 97.44909668 438.12584114 C99.76315888 437.39508466 102.09738537 436.72445856 104.44909668 436.12584114 C104.44909668 435.46584114 104.44909668 434.80584114 104.44909668 434.12584114 C105.43909668 434.12584114 106.42909668 434.12584114 107.44909668 434.12584114 C107.44909668 433.13584114 107.44909668 432.14584114 107.44909668 431.12584114 C108.45972168 431.04334114 109.47034668 430.96084114 110.51159668 430.87584114 C114.82696584 430.28578046 117.79647865 428.43668112 121.44909668 426.12584114 C121.44909668 425.46584114 121.44909668 424.80584114 121.44909668 424.12584114 C124.52526855 423.83287239 124.52526855 423.83287239 127.60144043 423.53990364 C128.21116699 423.40326302 128.82089355 423.26662239 129.44909668 423.12584114 C129.77909668 422.46584114 130.10909668 421.80584114 130.44909668 421.12584114 C132.42798629 420.3989021 134.42864226 419.72767863 136.44909668 419.12584114 C136.44909668 418.46584114 136.44909668 417.80584114 136.44909668 417.12584114 C137.76909668 417.12584114 139.08909668 417.12584114 140.44909668 417.12584114 C141.47014219 416.14733919 142.46970878 415.14603687 143.44909668 414.12584114 C145.63659668 413.43834114 145.63659668 413.43834114 147.44909668 413.12584114 C147.44909668 412.46584114 147.44909668 411.80584114 147.44909668 411.12584114 C150.08909668 410.79584114 152.72909668 410.46584114 155.44909668 410.12584114 C155.44909668 409.13584114 155.44909668 408.14584114 155.44909668 407.12584114 C157.75909668 406.79584114 160.06909668 406.46584114 162.44909668 406.12584114 C162.44909668 405.46584114 162.44909668 404.80584114 162.44909668 404.12584114 C165.67425431 402.3892178 168.96238834 401.23524834 172.44909668 400.12584114 C172.44909668 399.46584114 172.44909668 398.80584114 172.44909668 398.12584114 C173.76909668 398.12584114 175.08909668 398.12584114 176.44909668 398.12584114 C176.44909668 397.46584114 176.44909668 396.80584114 176.44909668 396.12584114 C177.43909668 396.12584114 178.42909668 396.12584114 179.44909668 396.12584114 C179.44909668 395.46584114 179.44909668 394.80584114 179.44909668 394.12584114 C180.58347168 394.00209114 181.71784668 393.87834114 182.88659668 393.75084114 C184.06222168 393.54459114 185.23784668 393.33834114 186.44909668 393.12584114 C186.77909668 392.46584114 187.10909668 391.80584114 187.44909668 391.12584114 C189.76315888 390.39508466 192.09738537 389.72445856 194.44909668 389.12584114 C194.44909668 388.46584114 194.44909668 387.80584114 194.44909668 387.12584114 C195.43909668 387.12584114 196.42909668 387.12584114 197.44909668 387.12584114 C197.77909668 386.46584114 198.10909668 385.80584114 198.44909668 385.12584114 C200.29675293 384.49302864 200.29675293 384.49302864 202.51159668 384.00084114 C203.24507324 383.83326302 203.9785498 383.66568489 204.73425293 383.49302864 C205.30015137 383.37185677 205.8660498 383.25068489 206.44909668 383.12584114 C206.44909668 382.46584114 206.44909668 381.80584114 206.44909668 381.12584114 C208.42909668 380.79584114 210.40909668 380.46584114 212.44909668 380.12584114 C212.77909668 379.13584114 213.10909668 378.14584114 213.44909668 377.12584114 C215.42909668 376.79584114 217.40909668 376.46584114 219.44909668 376.12584114 C219.44909668 375.46584114 219.44909668 374.80584114 219.44909668 374.12584114 C220.76909668 373.79584114 222.08909668 373.46584114 223.44909668 373.12584114 C223.44909668 372.46584114 223.44909668 371.80584114 223.44909668 371.12584114 C225.75909668 370.79584114 228.06909668 370.46584114 230.44909668 370.12584114 C230.44909668 369.46584114 230.44909668 368.80584114 230.44909668 368.12584114 C231.04722168 367.98146614 231.64534668 367.83709114 232.26159668 367.68834114 C234.01060072 367.23859724 235.73586691 366.69691773 237.44909668 366.12584114 C237.44909668 365.46584114 237.44909668 364.80584114 237.44909668 364.12584114 C240.52526855 363.83287239 240.52526855 363.83287239 243.60144043 363.53990364 C244.21116699 363.40326302 244.82089355 363.26662239 245.44909668 363.12584114 C245.77909668 362.46584114 246.10909668 361.80584114 246.44909668 361.12584114 C248.42798629 360.3989021 250.42864226 359.72767863 252.44909668 359.12584114 C252.44909668 358.46584114 252.44909668 357.80584114 252.44909668 357.12584114 C253.76909668 357.12584114 255.08909668 357.12584114 256.44909668 357.12584114 C256.44909668 356.13584114 256.44909668 355.14584114 256.44909668 354.12584114 C258.75909668 353.79584114 261.06909668 353.46584114 263.44909668 353.12584114 C263.44909668 352.46584114 263.44909668 351.80584114 263.44909668 351.12584114 C264.41847168 351.00209114 265.38784668 350.87834114 266.38659668 350.75084114 C267.39722168 350.54459114 268.40784668 350.33834114 269.44909668 350.12584114 C269.77909668 349.46584114 270.10909668 348.80584114 270.44909668 348.12584114 C272.76315888 347.39508466 275.09738537 346.72445856 277.44909668 346.12584114 C277.44909668 345.46584114 277.44909668 344.80584114 277.44909668 344.12584114 C278.43909668 344.12584114 279.42909668 344.12584114 280.44909668 344.12584114 C280.77909668 343.46584114 281.10909668 342.80584114 281.44909668 342.12584114 C283.42798629 341.3989021 285.42864226 340.72767863 287.44909668 340.12584114 C287.44909668 339.46584114 287.44909668 338.80584114 287.44909668 338.12584114 C289.09909668 338.12584114 290.74909668 338.12584114 292.44909668 338.12584114 C292.44909668 337.46584114 292.44909668 336.80584114 292.44909668 336.12584114 C293.76909668 336.12584114 295.08909668 336.12584114 296.44909668 336.12584114 C296.44909668 335.46584114 296.44909668 334.80584114 296.44909668 334.12584114 C298.75909668 333.79584114 301.06909668 333.46584114 303.44909668 333.12584114 C303.44909668 332.13584114 303.44909668 331.14584114 303.44909668 330.12584114 C305.42909668 329.79584114 307.40909668 329.46584114 309.44909668 329.12584114 C309.44909668 328.46584114 309.44909668 327.80584114 309.44909668 327.12584114 C308.45909668 326.79584114 307.46909668 326.46584114 306.44909668 326.12584114 C306.11909668 325.46584114 305.78909668 324.80584114 305.44909668 324.12584114 C302.41975177 323.46811686 302.41975177 323.46811686 299.44909668 323.12584114 C299.44909668 322.46584114 299.44909668 321.80584114 299.44909668 321.12584114 C297.13909668 320.79584114 294.82909668 320.46584114 292.44909668 320.12584114 C292.44909668 319.13584114 292.44909668 318.14584114 292.44909668 317.12584114 C289.80909668 316.79584114 287.16909668 316.46584114 284.44909668 316.12584114 C284.44909668 315.46584114 284.44909668 314.80584114 284.44909668 314.12584114 C283.45909668 313.79584114 282.46909668 313.46584114 281.44909668 313.12584114 C281.11909668 312.46584114 280.78909668 311.80584114 280.44909668 311.12584114 C278.12753071 310.71854887 275.79221798 310.38145437 273.44909668 310.12584114 C273.44909668 309.46584114 273.44909668 308.80584114 273.44909668 308.12584114 C270.80170752 306.66521264 269.55461334 306.12584114 266.44909668 306.12584114 C266.44909668 305.46584114 266.44909668 304.80584114 266.44909668 304.12584114 C265.35597168 303.65146614 264.26284668 303.17709114 263.13659668 302.68834114 C262.52171387 302.4215052 261.90683105 302.15466927 261.27331543 301.87974739 C259.69198647 301.22622172 258.07234262 300.66692312 256.44909668 300.12584114 C256.44909668 299.46584114 256.44909668 298.80584114 256.44909668 298.12584114 C254.13909668 297.79584114 251.82909668 297.46584114 249.44909668 297.12584114 C249.44909668 296.13584114 249.44909668 295.14584114 249.44909668 294.12584114 C244.14815452 292.32279959 238.8460118 290.6186049 233.44909668 289.12584114 C233.44909668 288.46584114 233.44909668 287.80584114 233.44909668 287.12584114 C231.13909668 286.79584114 228.82909668 286.46584114 226.44909668 286.12584114 C226.44909668 285.46584114 226.44909668 284.80584114 226.44909668 284.12584114 C225.41341073 282.41848813 225.41341073 282.41848813 223.44909668 281.12584114 C219.83886569 280.39542261 219.83886569 280.39542261 216.44909668 280.12584114 C216.44909668 279.46584114 216.44909668 278.80584114 216.44909668 278.12584114 C215.45909668 278.12584114 214.46909668 278.12584114 213.44909668 278.12584114 C213.44909668 277.46584114 213.44909668 276.80584114 213.44909668 276.12584114 C212.12909668 276.12584114 210.80909668 276.12584114 209.44909668 276.12584114 C209.44909668 275.46584114 209.44909668 274.80584114 209.44909668 274.12584114 C207.13909668 273.79584114 204.82909668 273.46584114 202.44909668 273.12584114 C202.44909668 272.13584114 202.44909668 271.14584114 202.44909668 270.12584114 C200.79909668 270.12584114 199.14909668 270.12584114 197.44909668 270.12584114 C197.44909668 269.46584114 197.44909668 268.80584114 197.44909668 268.12584114 C195.13909668 267.79584114 192.82909668 267.46584114 190.44909668 267.12584114 C190.44909668 266.13584114 190.44909668 265.14584114 190.44909668 264.12584114 C188.13909668 263.79584114 185.82909668 263.46584114 183.44909668 263.12584114 C183.44909668 262.46584114 183.44909668 261.80584114 183.44909668 261.12584114 C182.47972168 260.83709114 181.51034668 260.54834114 180.51159668 260.25084114 C177.44909668 259.12584114 177.44909668 259.12584114 176.44909668 257.12584114 C173.41975177 256.46811686 173.41975177 256.46811686 170.44909668 256.12584114 C170.44909668 255.46584114 170.44909668 254.80584114 170.44909668 254.12584114 C169.12909668 254.12584114 167.80909668 254.12584114 166.44909668 254.12584114 C166.44909668 253.13584114 166.44909668 252.14584114 166.44909668 251.12584114 C164.13909668 250.79584114 161.82909668 250.46584114 159.44909668 250.12584114 C159.44909668 249.46584114 159.44909668 248.80584114 159.44909668 248.12584114 C158.12909668 248.12584114 156.80909668 248.12584114 155.44909668 248.12584114 C155.44909668 247.46584114 155.44909668 246.80584114 155.44909668 246.12584114 C154.66663574 245.86029427 153.8841748 245.59474739 153.07800293 245.32115364 C152.06608887 244.96795052 151.0541748 244.61474739 150.01159668 244.25084114 C149.00226074 243.90279427 147.9929248 243.55474739 146.95300293 243.19615364 C144.44909668 242.12584114 144.44909668 242.12584114 143.44909668 240.12584114 C142.45909668 240.12584114 141.46909668 240.12584114 140.44909668 240.12584114 C140.44909668 239.46584114 140.44909668 238.80584114 140.44909668 238.12584114 C139.47972168 237.83709114 138.51034668 237.54834114 137.51159668 237.25084114 C134.44909668 236.12584114 134.44909668 236.12584114 133.44909668 234.12584114 C131.12753071 233.71854887 128.79221798 233.38145437 126.44909668 233.12584114 C126.44909668 232.46584114 126.44909668 231.80584114 126.44909668 231.12584114 C124.13909668 230.79584114 121.82909668 230.46584114 119.44909668 230.12584114 C119.44909668 229.13584114 119.44909668 228.14584114 119.44909668 227.12584114 C117.13909668 226.79584114 114.82909668 226.46584114 112.44909668 226.12584114 C112.44909668 225.46584114 112.44909668 224.80584114 112.44909668 224.12584114 C111.49003418 223.94021614 111.49003418 223.94021614 110.51159668 223.75084114 C109.83097168 223.54459114 109.15034668 223.33834114 108.44909668 223.12584114 C108.11909668 222.46584114 107.78909668 221.80584114 107.44909668 221.12584114 C105.12753071 220.71854887 102.79221798 220.38145437 100.44909668 220.12584114 C100.44909668 219.46584114 100.44909668 218.80584114 100.44909668 218.12584114 C97.4953217 215.75604101 97.4953217 215.75604101 93.44909668 216.12584114 C93.44909668 215.46584114 93.44909668 214.80584114 93.44909668 214.12584114 C92.47972168 213.83709114 91.51034668 213.54834114 90.51159668 213.25084114 C87.44909668 212.12584114 87.44909668 212.12584114 86.44909668 210.12584114 C85.45909668 210.12584114 84.46909668 210.12584114 83.44909668 210.12584114 C83.44909668 209.46584114 83.44909668 208.80584114 83.44909668 208.12584114 C81.13909668 207.79584114 78.82909668 207.46584114 76.44909668 207.12584114 C76.44909668 206.13584114 76.44909668 205.14584114 76.44909668 204.12584114 C74.13909668 203.79584114 71.82909668 203.46584114 69.44909668 203.12584114 C69.44909668 202.46584114 69.44909668 201.80584114 69.44909668 201.12584114 C68.29409668 200.71334114 67.13909668 200.30084114 65.94909668 199.87584114 C62.22747356 198.48766911 58.72786084 196.83359196 55.21081543 194.99302864 C53.28670352 193.99656922 53.28670352 193.99656922 50.44909668 193.12584114 C50.44909668 192.46584114 50.44909668 191.80584114 50.44909668 191.12584114 C45.63699767 188.835391 45.63699767 188.835391 40.44909668 188.12584114 C40.44909668 187.46584114 40.44909668 186.80584114 40.44909668 186.12584114 C39.12909668 186.12584114 37.80909668 186.12584114 36.44909668 186.12584114 C36.44909668 185.46584114 36.44909668 184.80584114 36.44909668 184.12584114 C34.13909668 183.79584114 31.82909668 183.46584114 29.44909668 183.12584114 C29.44909668 182.13584114 29.44909668 181.14584114 29.44909668 180.12584114 C28.45909668 180.12584114 27.46909668 180.12584114 26.44909668 180.12584114 C26.44909668 179.46584114 26.44909668 178.80584114 26.44909668 178.12584114 C25.88319824 178.00466927 25.3172998 177.88349739 24.73425293 177.75865364 C24.00077637 177.59107552 23.2672998 177.42349739 22.51159668 177.25084114 C21.41524902 177.00720833 21.41524902 177.00720833 20.29675293 176.75865364 C18.44909668 176.12584114 18.44909668 176.12584114 17.44909668 174.12584114 C15.13909668 173.79584114 12.82909668 173.46584114 10.44909668 173.12584114 Z " fill="#D0E2D8" transform="translate(826.5509033203125,142.87415885925293)"/>
</svg>
